<svg width="287" height="63" viewBox="0 0 287 63" fill="none" xmlns="http://www.w3.org/2000/svg">
<path d="M18.9421 2.45506C17.3582 3.34642 16.9208 5.36061 16.9 6.25628C17.4322 6.35012 18.8195 6.3661 20.1113 5.6793C21.403 4.9925 22.47 2.33021 22.842 1.08492C22.202 1.17023 20.5261 1.56369 18.9421 2.45506Z" fill="white"/>
<path d="M16.3931 9.19626C14.6954 9.84516 13.9666 11.7732 13.8144 12.6561C14.3271 12.8271 15.697 13.0468 17.0756 12.5573C18.4543 12.0678 19.901 9.59126 20.4519 8.41417C19.8064 8.40449 18.0908 8.54736 16.3931 9.19626Z" fill="white"/>
<path d="M10.7905 5.78698C10.1115 7.47288 11.0292 9.31844 11.5729 10.0305C12.047 9.77103 13.1398 8.91622 13.7186 7.57263C14.2975 6.22904 13.466 3.4841 12.9778 2.27958C12.5316 2.74626 11.4695 4.10108 10.7905 5.78698Z" fill="white"/>
<path d="M6.17418 13.7479C6.05351 15.5614 7.49997 17.0298 8.23828 17.5372C8.60805 17.1432 9.38059 15.9907 9.51262 14.5337C9.64465 13.0767 8.0002 10.7268 7.16147 9.734C6.88266 10.3164 6.29486 11.9344 6.17418 13.7479Z" fill="white"/>
<path d="M3.33079 22.9518C3.71931 24.7272 5.51712 25.7353 6.36747 26.0174C6.61302 25.536 7.03452 24.2142 6.75605 22.7779C6.47758 21.3417 4.24439 19.542 3.1626 18.8216C3.05678 19.4586 2.94226 21.1763 3.33079 22.9518Z" fill="white"/>
<path d="M3.12151 30.8263C3.97813 32.4292 5.9823 32.9105 6.87731 32.9508C6.98273 32.4207 7.02895 31.0341 6.37047 29.7277C5.71199 28.4213 3.0736 27.2965 1.83671 26.8975C1.90805 27.5392 2.26488 29.2233 3.12151 30.8263Z" fill="white"/>
<path d="M3.67089 37.5303C4.78754 38.9643 6.84435 39.0979 7.73318 38.9855C7.74696 38.4452 7.55679 37.0709 6.68582 35.8954C5.81484 34.72 3.02365 34.0601 1.73692 33.8771C1.91631 34.4973 2.55424 36.0963 3.67089 37.5303Z" fill="white"/>
<path d="M7.5404 44.8393C8.96203 45.9716 10.9929 45.6195 11.8306 45.3018C11.7174 44.7734 11.2104 43.4819 10.0882 42.5433C8.96598 41.6047 6.09788 41.6174 4.8041 41.7411C5.12385 42.302 6.11876 43.7069 7.5404 44.8393Z" fill="white"/>
<path d="M13.0844 50.9812C14.7537 51.7 16.6205 50.8262 17.3452 50.2995C17.0971 49.8195 16.2684 48.7067 14.9389 48.0962C13.6094 47.4857 10.8455 48.2519 9.62978 48.7114C10.0858 49.1685 11.415 50.2625 13.0844 50.9812Z" fill="white"/>
<path d="M19.2268 56.3004C21.0168 56.6153 22.6322 55.3351 23.2161 54.6557C22.8641 54.2457 21.8014 53.3537 20.3671 53.0658C18.9327 52.7778 16.4196 54.1601 15.3424 54.8872C15.8914 55.227 17.4368 55.9854 19.2268 56.3004Z" fill="white"/>
<path d="M26.2414 59.7045C28.0589 59.6937 29.4188 58.1448 29.8716 57.3718C29.4518 57.0315 28.2465 56.3443 26.7837 56.318C25.321 56.2917 23.0962 58.1018 22.1666 59.0101C22.7676 59.2461 24.424 59.7153 26.2414 59.7045Z" fill="white"/>
<path d="M11.4378 17.5424C9.98239 18.631 9.80899 20.6849 9.90421 21.5757C10.4441 21.6 11.8218 21.4365 13.0139 20.5884C14.2061 19.7404 14.9199 16.9625 15.1278 15.6796C14.5042 15.8469 12.8932 16.4537 11.4378 17.5424Z" fill="white"/>
<path d="M10.3672 25.3548C9.13209 26.6882 9.3321 28.7396 9.58649 29.5987C10.1219 29.5251 11.4475 29.1157 12.467 28.0665C13.4866 27.0173 13.6875 24.1562 13.6605 22.8568C13.0773 23.1339 11.6022 24.0215 10.3672 25.3548Z" fill="white"/>
<path d="M10.9856 33.4715C9.96394 34.9747 10.4686 36.9731 10.8487 37.7844C11.367 37.6316 12.6164 37.0284 13.4676 35.8385C14.3187 34.6486 14.0893 31.7896 13.8682 30.5089C13.333 30.8701 12.0073 31.9684 10.9856 33.4715Z" fill="white"/>
<path d="M13.9345 39.4984C13.243 41.1792 14.1469 43.0316 14.6853 43.7476C15.1613 43.4917 16.2604 42.6451 16.8493 41.3059C17.4382 39.9666 16.6271 37.2156 16.1479 36.0074C15.6983 36.4708 14.6261 37.8176 13.9345 39.4984Z" fill="white"/>
<path d="M18.3037 45.0383C18.0873 46.8429 19.4541 48.3856 20.1646 48.9315C20.5547 48.5575 21.387 47.4475 21.5959 45.9995C21.8048 44.5515 20.2869 42.118 19.5018 41.0822C19.1926 41.649 18.5201 43.2337 18.3037 45.0383Z" fill="white"/>
<path d="M25.2491 51.422C26.0101 53.0725 27.9825 53.6708 28.8736 53.7636C29.01 53.2406 29.1376 51.8591 28.5571 50.5163C27.9765 49.1734 25.4088 47.8955 24.1975 47.4244C24.231 48.0692 24.4882 49.7714 25.2491 51.422Z" fill="white"/>
<path d="M268.761 2.45506C270.345 3.34642 270.782 5.36061 270.803 6.25628C270.271 6.35012 268.884 6.3661 267.592 5.6793C266.3 4.9925 265.233 2.33021 264.861 1.08492C265.501 1.17023 267.177 1.56369 268.761 2.45506Z" fill="white"/>
<path d="M271.31 9.19626C273.008 9.84516 273.737 11.7732 273.889 12.6561C273.376 12.8271 272.006 13.0468 270.627 12.5573C269.249 12.0678 267.802 9.59126 267.251 8.41417C267.897 8.40449 269.612 8.54736 271.31 9.19626Z" fill="white"/>
<path d="M276.913 5.78698C277.592 7.47288 276.674 9.31844 276.13 10.0305C275.656 9.77103 274.563 8.91622 273.984 7.57263C273.406 6.22904 274.237 3.4841 274.725 2.27958C275.171 2.74626 276.234 4.10108 276.913 5.78698Z" fill="white"/>
<path d="M281.529 13.7479C281.65 15.5614 280.203 17.0298 279.465 17.5372C279.095 17.1432 278.323 15.9907 278.191 14.5337C278.058 13.0767 279.703 10.7268 280.542 9.734C280.82 10.3164 281.408 11.9344 281.529 13.7479Z" fill="white"/>
<path d="M284.372 22.9518C283.984 24.7272 282.186 25.7353 281.336 26.0174C281.09 25.536 280.669 24.2142 280.947 22.7779C281.226 21.3417 283.459 19.542 284.541 18.8216C284.646 19.4586 284.761 21.1763 284.372 22.9518Z" fill="white"/>
<path d="M284.582 30.8263C283.725 32.4292 281.721 32.9105 280.826 32.9508C280.72 32.4207 280.674 31.0341 281.333 29.7277C281.991 28.4213 284.63 27.2965 285.866 26.8975C285.795 27.5392 285.438 29.2233 284.582 30.8263Z" fill="white"/>
<path d="M284.032 37.5303C282.916 38.9643 280.859 39.0979 279.97 38.9855C279.956 38.4452 280.146 37.0709 281.017 35.8954C281.888 34.72 284.679 34.0601 285.966 33.8771C285.787 34.4973 285.149 36.0963 284.032 37.5303Z" fill="white"/>
<path d="M280.163 44.8393C278.741 45.9716 276.71 45.6195 275.873 45.3018C275.986 44.7734 276.493 43.4819 277.615 42.5433C278.737 41.6047 281.605 41.6174 282.899 41.7411C282.579 42.302 281.584 43.7069 280.163 44.8393Z" fill="white"/>
<path d="M274.619 50.9812C272.949 51.7 271.083 50.8262 270.358 50.2995C270.606 49.8195 271.435 48.7067 272.764 48.0962C274.094 47.4857 276.858 48.2519 278.073 48.7114C277.617 49.1685 276.288 50.2625 274.619 50.9812Z" fill="white"/>
<path d="M268.476 56.3004C266.686 56.6153 265.071 55.3351 264.487 54.6557C264.839 54.2457 265.902 53.3537 267.336 53.0658C268.77 52.7778 271.284 54.1601 272.361 54.8872C271.812 55.227 270.266 55.9854 268.476 56.3004Z" fill="white"/>
<path d="M261.462 59.7045C259.644 59.6937 258.284 58.1448 257.832 57.3718C258.251 57.0315 259.457 56.3443 260.919 56.318C262.382 56.2917 264.607 58.1018 265.536 59.0101C264.936 59.2461 263.279 59.7153 261.462 59.7045Z" fill="white"/>
<path d="M276.265 17.5424C277.721 18.631 277.894 20.6849 277.799 21.5757C277.259 21.6 275.881 21.4365 274.689 20.5884C273.497 19.7404 272.783 16.9625 272.575 15.6796C273.199 15.8469 274.81 16.4537 276.265 17.5424Z" fill="white"/>
<path d="M277.336 25.3548C278.571 26.6882 278.371 28.7396 278.117 29.5987C277.581 29.5251 276.256 29.1157 275.236 28.0665C274.217 27.0173 274.016 24.1562 274.043 22.8568C274.626 23.1339 276.101 24.0215 277.336 25.3548Z" fill="white"/>
<path d="M276.718 33.4715C277.739 34.9747 277.235 36.9731 276.854 37.7844C276.336 37.6316 275.087 37.0284 274.236 35.8385C273.384 34.6486 273.614 31.7896 273.835 30.5089C274.37 30.8701 275.696 31.9684 276.718 33.4715Z" fill="white"/>
<path d="M273.769 39.4984C274.46 41.1792 273.556 43.0316 273.018 43.7476C272.542 43.4917 271.443 42.6451 270.854 41.3059C270.265 39.9666 271.076 37.2156 271.555 36.0074C272.005 36.4708 273.077 37.8176 273.769 39.4984Z" fill="white"/>
<path d="M269.399 45.0383C269.616 46.8429 268.249 48.3856 267.539 48.9315C267.148 48.5575 266.316 47.4475 266.107 45.9995C265.898 44.5515 267.416 42.118 268.201 41.0822C268.511 41.649 269.183 43.2337 269.399 45.0383Z" fill="white"/>
<path d="M262.454 51.422C261.693 53.0725 259.721 53.6708 258.83 53.7636C258.693 53.2406 258.566 51.8591 259.146 50.5163C259.727 49.1734 262.294 47.8955 263.506 47.4244C263.472 48.0692 263.215 49.7714 262.454 51.422Z" fill="white"/>
<path d="M67.502 19H60.5146V18.0259L64.2061 13.9243C64.7529 13.3042 65.1289 12.8013 65.334 12.4155C65.5439 12.0249 65.6489 11.6221 65.6489 11.207C65.6489 10.6504 65.4805 10.1938 65.1436 9.8374C64.8066 9.48096 64.3574 9.30273 63.7959 9.30273C63.1221 9.30273 62.5972 9.49561 62.2212 9.88135C61.8501 10.2622 61.6646 10.7944 61.6646 11.478H60.3096C60.3096 10.4966 60.6245 9.70312 61.2544 9.09766C61.8892 8.49219 62.7363 8.18945 63.7959 8.18945C64.7871 8.18945 65.5708 8.45068 66.147 8.97314C66.7231 9.49072 67.0112 10.1816 67.0112 11.0459C67.0112 12.0957 66.3423 13.3457 65.0044 14.7959L62.1479 17.894H67.502V19Z" fill="white"/>
<path d="M75.6245 14.4517C75.6245 16.0386 75.3535 17.2178 74.8115 17.9893C74.2695 18.7607 73.4224 19.1465 72.27 19.1465C71.1323 19.1465 70.29 18.7705 69.7432 18.0186C69.1963 17.2617 68.9131 16.1338 68.8936 14.6348V12.8257C68.8936 11.2583 69.1646 10.0938 69.7065 9.33203C70.2485 8.57031 71.0981 8.18945 72.2554 8.18945C73.4028 8.18945 74.2476 8.55811 74.7896 9.29541C75.3315 10.0278 75.6099 11.1606 75.6245 12.6938V14.4517ZM74.2695 12.5986C74.2695 11.4512 74.1084 10.6162 73.7861 10.0938C73.4639 9.56641 72.9536 9.30273 72.2554 9.30273C71.562 9.30273 71.0566 9.56396 70.7393 10.0864C70.4219 10.6089 70.2583 11.4121 70.2485 12.4961V14.6641C70.2485 15.8164 70.4146 16.6685 70.7466 17.2202C71.0835 17.7671 71.5913 18.0405 72.27 18.0405C72.939 18.0405 73.4346 17.7817 73.7568 17.2642C74.084 16.7466 74.2549 15.9312 74.2695 14.8179V12.5986Z" fill="white"/>
<path d="M83.813 17.0151L85.6587 11.0752H87.1089L83.9229 20.2231C83.4297 21.5415 82.646 22.2007 81.5718 22.2007L81.3154 22.1787L80.8101 22.0835V20.9849L81.1763 21.0142C81.6353 21.0142 81.9917 20.9214 82.2456 20.7358C82.5044 20.5503 82.7168 20.2109 82.8828 19.7178L83.1831 18.9121L80.356 11.0752H81.8354L83.813 17.0151Z" fill="white"/>
<path d="M91.5107 19.1465C90.4365 19.1465 89.5625 18.7949 88.8887 18.0918C88.2148 17.3838 87.8779 16.439 87.8779 15.2573V15.0083C87.8779 14.2222 88.0269 13.5215 88.3247 12.9062C88.6274 12.2861 89.0474 11.8027 89.5845 11.4561C90.1265 11.1045 90.7124 10.9287 91.3423 10.9287C92.3726 10.9287 93.1733 11.2681 93.7446 11.9468C94.3159 12.6255 94.6016 13.5972 94.6016 14.8618V15.4258H89.2329C89.2524 16.207 89.4795 16.8394 89.9141 17.3228C90.3535 17.8013 90.9102 18.0405 91.584 18.0405C92.0625 18.0405 92.4678 17.9429 92.7998 17.7476C93.1318 17.5522 93.4224 17.2935 93.6714 16.9712L94.499 17.6157C93.835 18.6362 92.8389 19.1465 91.5107 19.1465ZM91.3423 12.042C90.7954 12.042 90.3364 12.2422 89.9653 12.6426C89.5942 13.0381 89.3647 13.5947 89.2769 14.3125H93.2466V14.21C93.2075 13.5215 93.022 12.9893 92.6899 12.6133C92.3579 12.2324 91.9087 12.042 91.3423 12.042Z" fill="white"/>
<path d="M101.069 19C100.991 18.8438 100.927 18.5654 100.878 18.165C100.249 18.8193 99.4966 19.1465 98.6226 19.1465C97.8413 19.1465 97.1992 18.9268 96.6963 18.4873C96.1982 18.043 95.9492 17.4814 95.9492 16.8027C95.9492 15.9775 96.2617 15.3379 96.8867 14.8838C97.5166 14.4248 98.4004 14.1953 99.5381 14.1953H100.856V13.5728C100.856 13.0991 100.715 12.7231 100.432 12.4448C100.148 12.1616 99.731 12.02 99.1792 12.02C98.6958 12.02 98.2905 12.1421 97.9634 12.3862C97.6362 12.6304 97.4727 12.9258 97.4727 13.2725H96.1104C96.1104 12.877 96.2495 12.4961 96.5278 12.1299C96.811 11.7588 97.1919 11.4658 97.6704 11.251C98.1538 11.0361 98.6836 10.9287 99.2598 10.9287C100.173 10.9287 100.888 11.1582 101.406 11.6172C101.923 12.0713 102.192 12.6987 102.211 13.4995V17.147C102.211 17.8745 102.304 18.4531 102.49 18.8828V19H101.069ZM98.8203 17.9673C99.2451 17.9673 99.6479 17.8574 100.029 17.6377C100.41 17.418 100.686 17.1323 100.856 16.7808V15.1548H99.7944C98.1343 15.1548 97.3042 15.6406 97.3042 16.6123C97.3042 17.0371 97.4458 17.3691 97.729 17.6084C98.0122 17.8477 98.376 17.9673 98.8203 17.9673Z" fill="white"/>
<path d="M108.166 12.291C107.961 12.2568 107.739 12.2397 107.5 12.2397C106.611 12.2397 106.008 12.6182 105.69 13.375V19H104.335V11.0752H105.654L105.676 11.9907C106.12 11.2827 106.75 10.9287 107.565 10.9287C107.829 10.9287 108.029 10.9629 108.166 11.0312V12.291Z" fill="white"/>
<path d="M114.033 16.8979C114.033 16.5317 113.894 16.2485 113.615 16.0483C113.342 15.8433 112.861 15.6675 112.172 15.521C111.489 15.3745 110.944 15.1987 110.539 14.9937C110.139 14.7886 109.841 14.5444 109.646 14.2612C109.455 13.978 109.36 13.6411 109.36 13.2505C109.36 12.6011 109.633 12.0518 110.18 11.6025C110.732 11.1533 111.435 10.9287 112.29 10.9287C113.188 10.9287 113.916 11.1606 114.472 11.6245C115.034 12.0884 115.314 12.6816 115.314 13.4043H113.952C113.952 13.0332 113.793 12.7134 113.476 12.4448C113.164 12.1763 112.768 12.042 112.29 12.042C111.796 12.042 111.411 12.1494 111.132 12.3643C110.854 12.5791 110.715 12.8599 110.715 13.2065C110.715 13.5337 110.844 13.7803 111.103 13.9463C111.362 14.1123 111.828 14.271 112.502 14.4224C113.181 14.5737 113.73 14.7544 114.15 14.9644C114.57 15.1743 114.88 15.4282 115.08 15.7261C115.285 16.019 115.388 16.3779 115.388 16.8027C115.388 17.5107 115.104 18.0796 114.538 18.5093C113.972 18.9341 113.237 19.1465 112.333 19.1465C111.699 19.1465 111.137 19.0342 110.649 18.8096C110.161 18.585 109.777 18.2725 109.499 17.8721C109.226 17.4668 109.089 17.0298 109.089 16.561H110.444C110.468 17.0151 110.649 17.3765 110.986 17.645C111.328 17.9087 111.777 18.0405 112.333 18.0405C112.846 18.0405 113.256 17.938 113.564 17.7329C113.876 17.5229 114.033 17.2446 114.033 16.8979Z" fill="white"/>
<path d="M122.595 19H121.188V8.33594H122.595V19Z" fill="white"/>
<path d="M125.173 19V8.33594H128.183C129.111 8.33594 129.931 8.54102 130.644 8.95117C131.357 9.36133 131.906 9.94482 132.292 10.7017C132.683 11.4585 132.88 12.3276 132.885 13.3091V13.9902C132.885 14.9961 132.69 15.8774 132.299 16.6343C131.914 17.3911 131.359 17.9722 130.637 18.3774C129.919 18.7827 129.082 18.9902 128.125 19H125.173ZM126.579 9.49316V17.8501H128.059C129.143 17.8501 129.985 17.5132 130.585 16.8394C131.191 16.1655 131.494 15.2061 131.494 13.9609V13.3384C131.494 12.1274 131.208 11.1875 130.637 10.5186C130.07 9.84473 129.265 9.50293 128.22 9.49316H126.579Z" fill="white"/>
<path d="M136.833 8.33594L140.319 17.0371L143.806 8.33594H145.629V19H144.223V14.8472L144.355 10.3647L140.854 19H139.777L136.284 10.3867L136.423 14.8472V19H135.017V8.33594H136.833Z" fill="white"/>
<path d="M156.513 19C156.435 18.8438 156.372 18.5654 156.323 18.165C155.693 18.8193 154.941 19.1465 154.067 19.1465C153.286 19.1465 152.644 18.9268 152.141 18.4873C151.643 18.043 151.394 17.4814 151.394 16.8027C151.394 15.9775 151.706 15.3379 152.331 14.8838C152.961 14.4248 153.845 14.1953 154.982 14.1953H156.301V13.5728C156.301 13.0991 156.159 12.7231 155.876 12.4448C155.593 12.1616 155.175 12.02 154.624 12.02C154.14 12.02 153.735 12.1421 153.408 12.3862C153.081 12.6304 152.917 12.9258 152.917 13.2725H151.555C151.555 12.877 151.694 12.4961 151.972 12.1299C152.255 11.7588 152.636 11.4658 153.115 11.251C153.598 11.0361 154.128 10.9287 154.704 10.9287C155.617 10.9287 156.333 11.1582 156.85 11.6172C157.368 12.0713 157.636 12.6987 157.656 13.4995V17.147C157.656 17.8745 157.749 18.4531 157.934 18.8828V19H156.513ZM154.265 17.9673C154.689 17.9673 155.092 17.8574 155.473 17.6377C155.854 17.418 156.13 17.1323 156.301 16.7808V15.1548H155.239C153.579 15.1548 152.749 15.6406 152.749 16.6123C152.749 17.0371 152.89 17.3691 153.173 17.6084C153.457 17.8477 153.82 17.9673 154.265 17.9673Z" fill="white"/>
<path d="M161.062 11.0752L161.105 12.0713C161.711 11.3096 162.502 10.9287 163.479 10.9287C165.153 10.9287 165.998 11.8735 166.013 13.7632V19H164.658V13.7559C164.653 13.1846 164.521 12.7622 164.262 12.4888C164.008 12.2153 163.61 12.0786 163.068 12.0786C162.629 12.0786 162.243 12.1958 161.911 12.4302C161.579 12.6646 161.32 12.9722 161.135 13.353V19H159.78V11.0752H161.062Z" fill="white"/>
<path d="M169.338 11.0752L169.382 12.0713C169.987 11.3096 170.778 10.9287 171.755 10.9287C173.43 10.9287 174.274 11.8735 174.289 13.7632V19H172.934V13.7559C172.929 13.1846 172.797 12.7622 172.539 12.4888C172.285 12.2153 171.887 12.0786 171.345 12.0786C170.905 12.0786 170.52 12.1958 170.188 12.4302C169.855 12.6646 169.597 12.9722 169.411 13.353V19H168.056V11.0752H169.338Z" fill="white"/>
<path d="M177.805 19H176.45V11.0752H177.805V19ZM176.34 8.97314C176.34 8.75342 176.406 8.56787 176.538 8.4165C176.674 8.26514 176.875 8.18945 177.138 8.18945C177.402 8.18945 177.602 8.26514 177.739 8.4165C177.875 8.56787 177.944 8.75342 177.944 8.97314C177.944 9.19287 177.875 9.37598 177.739 9.52246C177.602 9.66895 177.402 9.74219 177.138 9.74219C176.875 9.74219 176.674 9.66895 176.538 9.52246C176.406 9.37598 176.34 9.19287 176.34 8.97314Z" fill="white"/>
<path d="M182.595 17.1616L184.558 11.0752H185.942L183.1 19H182.067L179.196 11.0752H180.581L182.595 17.1616Z" fill="white"/>
<path d="M190.432 19.1465C189.357 19.1465 188.483 18.7949 187.81 18.0918C187.136 17.3838 186.799 16.439 186.799 15.2573V15.0083C186.799 14.2222 186.948 13.5215 187.246 12.9062C187.548 12.2861 187.968 11.8027 188.505 11.4561C189.047 11.1045 189.633 10.9287 190.263 10.9287C191.293 10.9287 192.094 11.2681 192.666 11.9468C193.237 12.6255 193.522 13.5972 193.522 14.8618V15.4258H188.154C188.173 16.207 188.4 16.8394 188.835 17.3228C189.274 17.8013 189.831 18.0405 190.505 18.0405C190.983 18.0405 191.389 17.9429 191.721 17.7476C192.053 17.5522 192.343 17.2935 192.592 16.9712L193.42 17.6157C192.756 18.6362 191.76 19.1465 190.432 19.1465ZM190.263 12.042C189.716 12.042 189.257 12.2422 188.886 12.6426C188.515 13.0381 188.286 13.5947 188.198 14.3125H192.167V14.21C192.128 13.5215 191.943 12.9893 191.611 12.6133C191.279 12.2324 190.83 12.042 190.263 12.042Z" fill="white"/>
<path d="M198.928 12.291C198.723 12.2568 198.5 12.2397 198.261 12.2397C197.373 12.2397 196.77 12.6182 196.452 13.375V19H195.097V11.0752H196.416L196.438 11.9907C196.882 11.2827 197.512 10.9287 198.327 10.9287C198.591 10.9287 198.791 10.9629 198.928 11.0312V12.291Z" fill="white"/>
<path d="M204.794 16.8979C204.794 16.5317 204.655 16.2485 204.377 16.0483C204.104 15.8433 203.623 15.6675 202.934 15.521C202.25 15.3745 201.706 15.1987 201.301 14.9937C200.9 14.7886 200.603 14.5444 200.407 14.2612C200.217 13.978 200.122 13.6411 200.122 13.2505C200.122 12.6011 200.395 12.0518 200.942 11.6025C201.494 11.1533 202.197 10.9287 203.051 10.9287C203.95 10.9287 204.677 11.1606 205.234 11.6245C205.795 12.0884 206.076 12.6816 206.076 13.4043H204.714C204.714 13.0332 204.555 12.7134 204.238 12.4448C203.925 12.1763 203.53 12.042 203.051 12.042C202.558 12.042 202.172 12.1494 201.894 12.3643C201.616 12.5791 201.477 12.8599 201.477 13.2065C201.477 13.5337 201.606 13.7803 201.865 13.9463C202.124 14.1123 202.59 14.271 203.264 14.4224C203.942 14.5737 204.492 14.7544 204.912 14.9644C205.332 15.1743 205.642 15.4282 205.842 15.7261C206.047 16.019 206.149 16.3779 206.149 16.8027C206.149 17.5107 205.866 18.0796 205.3 18.5093C204.733 18.9341 203.999 19.1465 203.095 19.1465C202.46 19.1465 201.899 19.0342 201.411 18.8096C200.922 18.585 200.539 18.2725 200.261 17.8721C199.987 17.4668 199.851 17.0298 199.851 16.561H201.206C201.23 17.0151 201.411 17.3765 201.748 17.645C202.089 17.9087 202.539 18.0405 203.095 18.0405C203.608 18.0405 204.018 17.938 204.326 17.7329C204.638 17.5229 204.794 17.2446 204.794 16.8979Z" fill="white"/>
<path d="M212.807 19C212.729 18.8438 212.666 18.5654 212.617 18.165C211.987 18.8193 211.235 19.1465 210.361 19.1465C209.58 19.1465 208.938 18.9268 208.435 18.4873C207.937 18.043 207.688 17.4814 207.688 16.8027C207.688 15.9775 208 15.3379 208.625 14.8838C209.255 14.4248 210.139 14.1953 211.276 14.1953H212.595V13.5728C212.595 13.0991 212.453 12.7231 212.17 12.4448C211.887 12.1616 211.469 12.02 210.917 12.02C210.434 12.02 210.029 12.1421 209.702 12.3862C209.375 12.6304 209.211 12.9258 209.211 13.2725H207.849C207.849 12.877 207.988 12.4961 208.266 12.1299C208.549 11.7588 208.93 11.4658 209.409 11.251C209.892 11.0361 210.422 10.9287 210.998 10.9287C211.911 10.9287 212.626 11.1582 213.144 11.6172C213.662 12.0713 213.93 12.6987 213.95 13.4995V17.147C213.95 17.8745 214.042 18.4531 214.228 18.8828V19H212.807ZM210.559 17.9673C210.983 17.9673 211.386 17.8574 211.767 17.6377C212.148 17.418 212.424 17.1323 212.595 16.7808V15.1548H211.533C209.873 15.1548 209.042 15.6406 209.042 16.6123C209.042 17.0371 209.184 17.3691 209.467 17.6084C209.75 17.8477 210.114 17.9673 210.559 17.9673Z" fill="white"/>
<path d="M219.904 12.291C219.699 12.2568 219.477 12.2397 219.238 12.2397C218.349 12.2397 217.746 12.6182 217.429 13.375V19H216.074V11.0752H217.392L217.414 11.9907C217.858 11.2827 218.488 10.9287 219.304 10.9287C219.567 10.9287 219.768 10.9629 219.904 11.0312V12.291Z" fill="white"/>
<path d="M223.881 17.0151L225.727 11.0752H227.177L223.991 20.2231C223.498 21.5415 222.714 22.2007 221.64 22.2007L221.384 22.1787L220.878 22.0835V20.9849L221.245 21.0142C221.704 21.0142 222.06 20.9214 222.314 20.7358C222.573 20.5503 222.785 20.2109 222.951 19.7178L223.251 18.9121L220.424 11.0752H221.904L223.881 17.0151Z" fill="white"/>
<path d="M58.3467 43H51.3594V42.0259L55.0508 37.9243C55.5977 37.3042 55.9736 36.8013 56.1787 36.4155C56.3887 36.0249 56.4937 35.6221 56.4937 35.207C56.4937 34.6504 56.3252 34.1938 55.9883 33.8374C55.6514 33.481 55.2021 33.3027 54.6406 33.3027C53.9668 33.3027 53.4419 33.4956 53.0659 33.8813C52.6948 34.2622 52.5093 34.7944 52.5093 35.478H51.1543C51.1543 34.4966 51.4692 33.7031 52.0991 33.0977C52.7339 32.4922 53.5811 32.1895 54.6406 32.1895C55.6318 32.1895 56.4155 32.4507 56.9917 32.9731C57.5679 33.4907 57.856 34.1816 57.856 35.0459C57.856 36.0957 57.187 37.3457 55.8491 38.7959L52.9927 41.894H58.3467V43Z" fill="white"/>
<path d="M70.1899 38.4517C70.1899 40.0386 69.9189 41.2178 69.377 41.9893C68.835 42.7607 67.9878 43.1465 66.8354 43.1465C65.6978 43.1465 64.8555 42.7705 64.3086 42.0186C63.7617 41.2617 63.4785 40.1338 63.459 38.6348V36.8257C63.459 35.2583 63.73 34.0938 64.272 33.332C64.814 32.5703 65.6636 32.1895 66.8208 32.1895C67.9683 32.1895 68.813 32.5581 69.355 33.2954C69.897 34.0278 70.1753 35.1606 70.1899 36.6938V38.4517ZM68.835 36.5986C68.835 35.4512 68.6738 34.6162 68.3516 34.0938C68.0293 33.5664 67.519 33.3027 66.8208 33.3027C66.1274 33.3027 65.6221 33.564 65.3047 34.0864C64.9873 34.6089 64.8237 35.4121 64.814 36.4961V38.6641C64.814 39.8164 64.98 40.6685 65.312 41.2202C65.6489 41.7671 66.1567 42.0405 66.8354 42.0405C67.5044 42.0405 68 41.7817 68.3223 41.2642C68.6494 40.7466 68.8203 39.9312 68.835 38.8179V36.5986Z" fill="white"/>
<path d="M78.6128 38.4517C78.6128 40.0386 78.3418 41.2178 77.7998 41.9893C77.2578 42.7607 76.4106 43.1465 75.2583 43.1465C74.1206 43.1465 73.2783 42.7705 72.7314 42.0186C72.1846 41.2617 71.9014 40.1338 71.8818 38.6348V36.8257C71.8818 35.2583 72.1528 34.0938 72.6948 33.332C73.2368 32.5703 74.0864 32.1895 75.2437 32.1895C76.3911 32.1895 77.2358 32.5581 77.7778 33.2954C78.3198 34.0278 78.5981 35.1606 78.6128 36.6938V38.4517ZM77.2578 36.5986C77.2578 35.4512 77.0967 34.6162 76.7744 34.0938C76.4521 33.5664 75.9419 33.3027 75.2437 33.3027C74.5503 33.3027 74.0449 33.564 73.7275 34.0864C73.4102 34.6089 73.2466 35.4121 73.2368 36.4961V38.6641C73.2368 39.8164 73.4028 40.6685 73.7349 41.2202C74.0718 41.7671 74.5796 42.0405 75.2583 42.0405C75.9272 42.0405 76.4229 41.7817 76.7451 41.2642C77.0723 40.7466 77.2432 39.9312 77.2578 38.8179V36.5986Z" fill="white"/>
<path d="M87.0356 38.4517C87.0356 40.0386 86.7646 41.2178 86.2227 41.9893C85.6807 42.7607 84.8335 43.1465 83.6812 43.1465C82.5435 43.1465 81.7012 42.7705 81.1543 42.0186C80.6074 41.2617 80.3242 40.1338 80.3047 38.6348V36.8257C80.3047 35.2583 80.5757 34.0938 81.1177 33.332C81.6597 32.5703 82.5093 32.1895 83.6665 32.1895C84.814 32.1895 85.6587 32.5581 86.2007 33.2954C86.7427 34.0278 87.021 35.1606 87.0356 36.6938V38.4517ZM85.6807 36.5986C85.6807 35.4512 85.5195 34.6162 85.1973 34.0938C84.875 33.5664 84.3647 33.3027 83.6665 33.3027C82.9731 33.3027 82.4678 33.564 82.1504 34.0864C81.833 34.6089 81.6694 35.4121 81.6597 36.4961V38.6641C81.6597 39.8164 81.8257 40.6685 82.1577 41.2202C82.4946 41.7671 83.0024 42.0405 83.6812 42.0405C84.3501 42.0405 84.8457 41.7817 85.168 41.2642C85.4951 40.7466 85.666 39.9312 85.6807 38.8179V36.5986Z" fill="white"/>
<path d="M99.1792 38.4517C99.1792 40.0386 98.9082 41.2178 98.3662 41.9893C97.8242 42.7607 96.9771 43.1465 95.8247 43.1465C94.687 43.1465 93.8447 42.7705 93.2979 42.0186C92.751 41.2617 92.4678 40.1338 92.4482 38.6348V36.8257C92.4482 35.2583 92.7192 34.0938 93.2612 33.332C93.8032 32.5703 94.6528 32.1895 95.8101 32.1895C96.9575 32.1895 97.8022 32.5581 98.3442 33.2954C98.8862 34.0278 99.1646 35.1606 99.1792 36.6938V38.4517ZM97.8242 36.5986C97.8242 35.4512 97.6631 34.6162 97.3408 34.0938C97.0186 33.5664 96.5083 33.3027 95.8101 33.3027C95.1167 33.3027 94.6113 33.564 94.2939 34.0864C93.9766 34.6089 93.813 35.4121 93.8032 36.4961V38.6641C93.8032 39.8164 93.9692 40.6685 94.3013 41.2202C94.6382 41.7671 95.146 42.0405 95.8247 42.0405C96.4937 42.0405 96.9893 41.7817 97.3115 41.2642C97.6387 40.7466 97.8096 39.9312 97.8242 38.8179V36.5986Z" fill="white"/>
<path d="M107.602 38.4517C107.602 40.0386 107.331 41.2178 106.789 41.9893C106.247 42.7607 105.4 43.1465 104.248 43.1465C103.11 43.1465 102.268 42.7705 101.721 42.0186C101.174 41.2617 100.891 40.1338 100.871 38.6348V36.8257C100.871 35.2583 101.142 34.0938 101.684 33.332C102.226 32.5703 103.076 32.1895 104.233 32.1895C105.38 32.1895 106.225 32.5581 106.767 33.2954C107.309 34.0278 107.587 35.1606 107.602 36.6938V38.4517ZM106.247 36.5986C106.247 35.4512 106.086 34.6162 105.764 34.0938C105.441 33.5664 104.931 33.3027 104.233 33.3027C103.54 33.3027 103.034 33.564 102.717 34.0864C102.399 34.6089 102.236 35.4121 102.226 36.4961V38.6641C102.226 39.8164 102.392 40.6685 102.724 41.2202C103.061 41.7671 103.569 42.0405 104.248 42.0405C104.917 42.0405 105.412 41.7817 105.734 41.2642C106.062 40.7466 106.232 39.9312 106.247 38.8179V36.5986Z" fill="white"/>
<path d="M116.025 38.4517C116.025 40.0386 115.754 41.2178 115.212 41.9893C114.67 42.7607 113.823 43.1465 112.67 43.1465C111.533 43.1465 110.69 42.7705 110.144 42.0186C109.597 41.2617 109.313 40.1338 109.294 38.6348V36.8257C109.294 35.2583 109.565 34.0938 110.107 33.332C110.649 32.5703 111.499 32.1895 112.656 32.1895C113.803 32.1895 114.648 32.5581 115.19 33.2954C115.732 34.0278 116.01 35.1606 116.025 36.6938V38.4517ZM114.67 36.5986C114.67 35.4512 114.509 34.6162 114.187 34.0938C113.864 33.5664 113.354 33.3027 112.656 33.3027C111.962 33.3027 111.457 33.564 111.14 34.0864C110.822 34.6089 110.659 35.4121 110.649 36.4961V38.6641C110.649 39.8164 110.815 40.6685 111.147 41.2202C111.484 41.7671 111.992 42.0405 112.67 42.0405C113.339 42.0405 113.835 41.7817 114.157 41.2642C114.484 40.7466 114.655 39.9312 114.67 38.8179V36.5986Z" fill="white"/>
<path d="M121.782 37.2798H124.755V38.5615H121.782V41.9307H120.419V38.5615H117.446V37.2798H120.419V34.167H121.782V37.2798Z" fill="white"/>
<path d="M133.962 36.291C133.757 36.2568 133.535 36.2397 133.295 36.2397C132.407 36.2397 131.804 36.6182 131.486 37.375V43H130.131V35.0752H131.45L131.472 35.9907C131.916 35.2827 132.546 34.9287 133.361 34.9287C133.625 34.9287 133.825 34.9629 133.962 35.0312V36.291Z" fill="white"/>
<path d="M138.356 43.1465C137.282 43.1465 136.408 42.7949 135.734 42.0918C135.061 41.3838 134.724 40.439 134.724 39.2573V39.0083C134.724 38.2222 134.873 37.5215 135.17 36.9062C135.473 36.2861 135.893 35.8027 136.43 35.4561C136.972 35.1045 137.558 34.9287 138.188 34.9287C139.218 34.9287 140.019 35.2681 140.59 35.9468C141.162 36.6255 141.447 37.5972 141.447 38.8618V39.4258H136.079C136.098 40.207 136.325 40.8394 136.76 41.3228C137.199 41.8013 137.756 42.0405 138.43 42.0405C138.908 42.0405 139.313 41.9429 139.646 41.7476C139.978 41.5522 140.268 41.2935 140.517 40.9712L141.345 41.6157C140.681 42.6362 139.685 43.1465 138.356 43.1465ZM138.188 36.042C137.641 36.042 137.182 36.2422 136.811 36.6426C136.44 37.0381 136.21 37.5947 136.123 38.3125H140.092V38.21C140.053 37.5215 139.868 36.9893 139.536 36.6133C139.204 36.2324 138.754 36.042 138.188 36.042Z" fill="white"/>
<path d="M142.7 38.9717C142.7 37.7363 142.985 36.7549 143.557 36.0273C144.128 35.2949 144.885 34.9287 145.827 34.9287C146.794 34.9287 147.548 35.2705 148.09 35.9541L148.156 35.0752H149.394V42.8096C149.394 43.835 149.089 44.6431 148.479 45.2339C147.873 45.8247 147.058 46.1201 146.032 46.1201C145.461 46.1201 144.902 45.998 144.355 45.7539C143.808 45.5098 143.391 45.1753 143.103 44.7505L143.806 43.9375C144.387 44.6553 145.097 45.0142 145.937 45.0142C146.596 45.0142 147.109 44.8286 147.475 44.4575C147.846 44.0864 148.032 43.564 148.032 42.8901V42.209C147.49 42.834 146.75 43.1465 145.812 43.1465C144.885 43.1465 144.133 42.7729 143.557 42.0259C142.985 41.2788 142.7 40.2607 142.7 38.9717ZM144.062 39.1255C144.062 40.019 144.245 40.7222 144.611 41.2349C144.978 41.7427 145.49 41.9966 146.149 41.9966C147.004 41.9966 147.631 41.6084 148.032 40.832V37.2139C147.617 36.457 146.994 36.0786 146.164 36.0786C145.505 36.0786 144.99 36.335 144.619 36.8477C144.248 37.3604 144.062 38.1196 144.062 39.1255Z" fill="white"/>
<path d="M152.917 43H151.562V35.0752H152.917V43ZM151.452 32.9731C151.452 32.7534 151.518 32.5679 151.65 32.4165C151.787 32.2651 151.987 32.1895 152.25 32.1895C152.514 32.1895 152.714 32.2651 152.851 32.4165C152.988 32.5679 153.056 32.7534 153.056 32.9731C153.056 33.1929 152.988 33.376 152.851 33.5225C152.714 33.6689 152.514 33.7422 152.25 33.7422C151.987 33.7422 151.787 33.6689 151.65 33.5225C151.518 33.376 151.452 33.1929 151.452 32.9731Z" fill="white"/>
<path d="M159.707 40.8979C159.707 40.5317 159.567 40.2485 159.289 40.0483C159.016 39.8433 158.535 39.6675 157.846 39.521C157.163 39.3745 156.618 39.1987 156.213 38.9937C155.812 38.7886 155.515 38.5444 155.319 38.2612C155.129 37.978 155.034 37.6411 155.034 37.2505C155.034 36.6011 155.307 36.0518 155.854 35.6025C156.406 35.1533 157.109 34.9287 157.963 34.9287C158.862 34.9287 159.589 35.1606 160.146 35.6245C160.708 36.0884 160.988 36.6816 160.988 37.4043H159.626C159.626 37.0332 159.467 36.7134 159.15 36.4448C158.837 36.1763 158.442 36.042 157.963 36.042C157.47 36.042 157.084 36.1494 156.806 36.3643C156.528 36.5791 156.389 36.8599 156.389 37.2065C156.389 37.5337 156.518 37.7803 156.777 37.9463C157.036 38.1123 157.502 38.271 158.176 38.4224C158.854 38.5737 159.404 38.7544 159.824 38.9644C160.244 39.1743 160.554 39.4282 160.754 39.7261C160.959 40.019 161.062 40.3779 161.062 40.8027C161.062 41.5107 160.778 42.0796 160.212 42.5093C159.646 42.9341 158.911 43.1465 158.007 43.1465C157.373 43.1465 156.811 43.0342 156.323 42.8096C155.834 42.585 155.451 42.2725 155.173 41.8721C154.899 41.4668 154.763 41.0298 154.763 40.561H156.118C156.142 41.0151 156.323 41.3765 156.66 41.645C157.001 41.9087 157.451 42.0405 158.007 42.0405C158.52 42.0405 158.93 41.938 159.238 41.7329C159.55 41.5229 159.707 41.2446 159.707 40.8979Z" fill="white"/>
<path d="M164.665 33.1562V35.0752H166.145V36.1226H164.665V41.0371C164.665 41.3545 164.731 41.5938 164.863 41.7549C164.995 41.9111 165.219 41.9893 165.537 41.9893C165.693 41.9893 165.908 41.96 166.181 41.9014V43C165.825 43.0977 165.478 43.1465 165.141 43.1465C164.536 43.1465 164.079 42.9634 163.771 42.5972C163.464 42.231 163.31 41.7109 163.31 41.0371V36.1226H161.867V35.0752H163.31V33.1562H164.665Z" fill="white"/>
<path d="M171.022 43.1465C169.948 43.1465 169.074 42.7949 168.4 42.0918C167.727 41.3838 167.39 40.439 167.39 39.2573V39.0083C167.39 38.2222 167.539 37.5215 167.836 36.9062C168.139 36.2861 168.559 35.8027 169.096 35.4561C169.638 35.1045 170.224 34.9287 170.854 34.9287C171.884 34.9287 172.685 35.2681 173.256 35.9468C173.828 36.6255 174.113 37.5972 174.113 38.8618V39.4258H168.745C168.764 40.207 168.991 40.8394 169.426 41.3228C169.865 41.8013 170.422 42.0405 171.096 42.0405C171.574 42.0405 171.979 41.9429 172.312 41.7476C172.644 41.5522 172.934 41.2935 173.183 40.9712L174.011 41.6157C173.347 42.6362 172.351 43.1465 171.022 43.1465ZM170.854 36.042C170.307 36.042 169.848 36.2422 169.477 36.6426C169.106 37.0381 168.876 37.5947 168.789 38.3125H172.758V38.21C172.719 37.5215 172.534 36.9893 172.202 36.6133C171.87 36.2324 171.42 36.042 170.854 36.042Z" fill="white"/>
<path d="M179.519 36.291C179.313 36.2568 179.091 36.2397 178.852 36.2397C177.963 36.2397 177.36 36.6182 177.043 37.375V43H175.688V35.0752H177.006L177.028 35.9907C177.473 35.2827 178.103 34.9287 178.918 34.9287C179.182 34.9287 179.382 34.9629 179.519 35.0312V36.291Z" fill="white"/>
<path d="M183.913 43.1465C182.839 43.1465 181.965 42.7949 181.291 42.0918C180.617 41.3838 180.28 40.439 180.28 39.2573V39.0083C180.28 38.2222 180.429 37.5215 180.727 36.9062C181.03 36.2861 181.45 35.8027 181.987 35.4561C182.529 35.1045 183.115 34.9287 183.745 34.9287C184.775 34.9287 185.576 35.2681 186.147 35.9468C186.718 36.6255 187.004 37.5972 187.004 38.8618V39.4258H181.635C181.655 40.207 181.882 40.8394 182.316 41.3228C182.756 41.8013 183.312 42.0405 183.986 42.0405C184.465 42.0405 184.87 41.9429 185.202 41.7476C185.534 41.5522 185.825 41.2935 186.074 40.9712L186.901 41.6157C186.237 42.6362 185.241 43.1465 183.913 43.1465ZM183.745 36.042C183.198 36.042 182.739 36.2422 182.368 36.6426C181.997 37.0381 181.767 37.5947 181.679 38.3125H185.649V38.21C185.61 37.5215 185.424 36.9893 185.092 36.6133C184.76 36.2324 184.311 36.042 183.745 36.042Z" fill="white"/>
<path d="M188.249 38.9717C188.249 37.7559 188.537 36.7793 189.113 36.042C189.689 35.2998 190.444 34.9287 191.376 34.9287C192.304 34.9287 193.039 35.2461 193.581 35.8809V31.75H194.936V43H193.691L193.625 42.1504C193.083 42.8145 192.329 43.1465 191.362 43.1465C190.444 43.1465 189.694 42.7705 189.113 42.0186C188.537 41.2666 188.249 40.2852 188.249 39.0742V38.9717ZM189.604 39.1255C189.604 40.0239 189.79 40.7271 190.161 41.2349C190.532 41.7427 191.044 41.9966 191.699 41.9966C192.558 41.9966 193.186 41.6108 193.581 40.8394V37.1992C193.176 36.4521 192.553 36.0786 191.713 36.0786C191.049 36.0786 190.532 36.335 190.161 36.8477C189.79 37.3604 189.604 38.1196 189.604 39.1255Z" fill="white"/>
<path d="M205.659 42.2163C205.131 42.8364 204.357 43.1465 203.337 43.1465C202.492 43.1465 201.848 42.9023 201.403 42.4141C200.964 41.9209 200.742 41.1934 200.737 40.2314V35.0752H202.092V40.1948C202.092 41.396 202.58 41.9966 203.557 41.9966C204.592 41.9966 205.28 41.6108 205.622 40.8394V35.0752H206.977V43H205.688L205.659 42.2163Z" fill="white"/>
<path d="M213.657 40.8979C213.657 40.5317 213.518 40.2485 213.239 40.0483C212.966 39.8433 212.485 39.6675 211.796 39.521C211.113 39.3745 210.568 39.1987 210.163 38.9937C209.763 38.7886 209.465 38.5444 209.27 38.2612C209.079 37.978 208.984 37.6411 208.984 37.2505C208.984 36.6011 209.257 36.0518 209.804 35.6025C210.356 35.1533 211.059 34.9287 211.914 34.9287C212.812 34.9287 213.54 35.1606 214.096 35.6245C214.658 36.0884 214.938 36.6816 214.938 37.4043H213.576C213.576 37.0332 213.417 36.7134 213.1 36.4448C212.788 36.1763 212.392 36.042 211.914 36.042C211.42 36.042 211.035 36.1494 210.756 36.3643C210.478 36.5791 210.339 36.8599 210.339 37.2065C210.339 37.5337 210.468 37.7803 210.727 37.9463C210.986 38.1123 211.452 38.271 212.126 38.4224C212.805 38.5737 213.354 38.7544 213.774 38.9644C214.194 39.1743 214.504 39.4282 214.704 39.7261C214.909 40.019 215.012 40.3779 215.012 40.8027C215.012 41.5107 214.729 42.0796 214.162 42.5093C213.596 42.9341 212.861 43.1465 211.958 43.1465C211.323 43.1465 210.761 43.0342 210.273 42.8096C209.785 42.585 209.401 42.2725 209.123 41.8721C208.85 41.4668 208.713 41.0298 208.713 40.561H210.068C210.092 41.0151 210.273 41.3765 210.61 41.645C210.952 41.9087 211.401 42.0405 211.958 42.0405C212.47 42.0405 212.88 41.938 213.188 41.7329C213.5 41.5229 213.657 41.2446 213.657 40.8979Z" fill="white"/>
<path d="M220.065 43.1465C218.991 43.1465 218.117 42.7949 217.443 42.0918C216.77 41.3838 216.433 40.439 216.433 39.2573V39.0083C216.433 38.2222 216.582 37.5215 216.879 36.9062C217.182 36.2861 217.602 35.8027 218.139 35.4561C218.681 35.1045 219.267 34.9287 219.897 34.9287C220.927 34.9287 221.728 35.2681 222.299 35.9468C222.871 36.6255 223.156 37.5972 223.156 38.8618V39.4258H217.788C217.807 40.207 218.034 40.8394 218.469 41.3228C218.908 41.8013 219.465 42.0405 220.139 42.0405C220.617 42.0405 221.022 41.9429 221.354 41.7476C221.687 41.5522 221.977 41.2935 222.226 40.9712L223.054 41.6157C222.39 42.6362 221.394 43.1465 220.065 43.1465ZM219.897 36.042C219.35 36.042 218.891 36.2422 218.52 36.6426C218.149 37.0381 217.919 37.5947 217.832 38.3125H221.801V38.21C221.762 37.5215 221.577 36.9893 221.245 36.6133C220.913 36.2324 220.463 36.042 219.897 36.042Z" fill="white"/>
<path d="M228.562 36.291C228.356 36.2568 228.134 36.2397 227.895 36.2397C227.006 36.2397 226.403 36.6182 226.086 37.375V43H224.731V35.0752H226.049L226.071 35.9907C226.516 35.2827 227.146 34.9287 227.961 34.9287C228.225 34.9287 228.425 34.9629 228.562 35.0312V36.291Z" fill="white"/>
<path d="M234.428 40.8979C234.428 40.5317 234.289 40.2485 234.011 40.0483C233.737 39.8433 233.256 39.6675 232.568 39.521C231.884 39.3745 231.34 39.1987 230.935 38.9937C230.534 38.7886 230.236 38.5444 230.041 38.2612C229.851 37.978 229.755 37.6411 229.755 37.2505C229.755 36.6011 230.029 36.0518 230.576 35.6025C231.127 35.1533 231.831 34.9287 232.685 34.9287C233.583 34.9287 234.311 35.1606 234.868 35.6245C235.429 36.0884 235.71 36.6816 235.71 37.4043H234.348C234.348 37.0332 234.189 36.7134 233.872 36.4448C233.559 36.1763 233.164 36.042 232.685 36.042C232.192 36.042 231.806 36.1494 231.528 36.3643C231.25 36.5791 231.11 36.8599 231.11 37.2065C231.11 37.5337 231.24 37.7803 231.499 37.9463C231.757 38.1123 232.224 38.271 232.897 38.4224C233.576 38.5737 234.125 38.7544 234.545 38.9644C234.965 39.1743 235.275 39.4282 235.476 39.7261C235.681 40.019 235.783 40.3779 235.783 40.8027C235.783 41.5107 235.5 42.0796 234.934 42.5093C234.367 42.9341 233.632 43.1465 232.729 43.1465C232.094 43.1465 231.533 43.0342 231.044 42.8096C230.556 42.585 230.173 42.2725 229.895 41.8721C229.621 41.4668 229.484 41.0298 229.484 40.561H230.839C230.864 41.0151 231.044 41.3765 231.381 41.645C231.723 41.9087 232.172 42.0405 232.729 42.0405C233.242 42.0405 233.652 41.938 233.959 41.7329C234.272 41.5229 234.428 41.2446 234.428 40.8979Z" fill="white"/>
</svg>
